# xmcd CD database file
#
# Track frame offsets:
#	150
#	35367
#	79464
#	101806
#	128897
#	165121
#	186487
#	209551
#	239932
#
# Disc length: 3510 seconds
#
# Revision: 0
# Processed by: cddbd v1.5.1PL2 Copyright (c) Steve Scherf et al.
# Submitted via: cdripper 1,0,33,916
#
DISCID=830db409
DTITLE=Ewan Christopher At Bob Barnard's Jazz Party 2005 - Evan Christopher
DYEAR=1900
DGENRE=Jazz
TTITLE0=I'm Forever Blowing Bubbles
TTITLE1=Basin Street Blues
TTITLE2=Ba Moin En Ti Dou Dou
TTITLE3=I Got A Right To Sing The Blues
TTITLE4=Blues My Naughty Sweetie Gives To Me
TTITLE5=Indian Summer
TTITLE6=Lover Come Back To Me
TTITLE7=That's A Plenty
TTITLE8=Sweethearts On Parade
EXTD=
EXTT0=
EXTT1=
EXTT2=
EXTT3=
EXTT4=
EXTT5=
EXTT6=
EXTT7=
EXTT8=
PLAYORDER=
